<svg width="467" height="134" viewBox="0 0 467 134" fill="none" xmlns="http://www.w3.org/2000/svg">
<path d="M112.35 85.78C105.07 85.78 99.61 84.168 95.97 80.944C92.382 77.72 90.38 73.3 89.964 67.684H99.948C100.364 70.96 101.456 73.508 103.224 75.328C104.992 77.096 108.034 77.98 112.35 77.98C115.47 77.98 117.992 77.2 119.916 75.64C121.892 74.028 122.88 71.948 122.88 69.4C122.88 66.8 122.074 64.902 120.462 63.706C118.85 62.51 115.782 61.548 111.258 60.82C104.342 59.884 99.324 58.22 96.204 55.828C93.136 53.384 91.602 49.614 91.602 44.518C91.602 39.89 93.396 36.068 96.984 33.052C100.572 30.036 105.252 28.528 111.024 28.528C117.056 28.528 121.814 29.906 125.298 32.662C128.782 35.366 130.784 39.37 131.304 44.674H121.788C121.268 41.762 120.15 39.656 118.434 38.356C116.718 37.004 114.248 36.328 111.024 36.328C107.956 36.328 105.59 37.004 103.926 38.356C102.262 39.656 101.43 41.424 101.43 43.66C101.43 46.052 102.184 47.846 103.692 49.042C105.252 50.238 108.346 51.174 112.974 51.85C119.89 52.786 124.934 54.476 128.106 56.92C131.278 59.312 132.864 63.186 132.864 68.542C132.864 73.482 130.966 77.59 127.17 80.866C123.374 84.142 118.434 85.78 112.35 85.78ZM152.538 85V37.42H137.016V29.23H178.512V37.42H162.99V85H152.538ZM206.225 85V29.23H220.967C226.739 29.23 231.341 30.504 234.773 33.052C238.257 35.6 239.999 39.552 239.999 44.908V45.22C239.999 50.68 238.283 54.71 234.851 57.31C231.419 59.858 226.817 61.132 221.045 61.132H210.593V85H206.225ZM210.593 57.622H221.357C230.873 57.622 235.631 53.488 235.631 45.22V44.908C235.631 40.592 234.383 37.498 231.887 35.626C229.391 33.754 225.829 32.818 221.201 32.818H210.593V57.622ZM250.557 85V29.23H254.925V81.412H281.991V85H250.557ZM287.316 85L307.362 29.23H313.134L333.18 85H328.812L322.65 67.918H297.534L291.45 85H287.316ZM310.092 32.818L298.782 64.408H321.402L310.092 32.818ZM351.197 85V60.196L332.087 29.23H336.923L353.459 56.53L369.215 29.23H373.583L355.565 60.274V85H351.197ZM382.563 85V29.23H414.621V32.818H386.931V54.58H409.395V58.168H386.931V81.412H416.025V85H382.563ZM426.742 85V29.23H442.03C447.802 29.23 452.404 30.452 455.836 32.896C459.268 35.288 460.984 39.058 460.984 44.206V44.518C460.984 52.994 456.174 57.908 446.554 59.26L464.26 85H459.424L441.952 59.572H431.11V85H426.742ZM431.11 56.062H442.264C451.832 56.062 456.616 52.214 456.616 44.518V44.206C456.616 40.098 455.368 37.186 452.872 35.47C450.428 33.702 446.892 32.818 442.264 32.818H431.11V56.062Z" fill="white"/>
<g filter="url(#filter0_d_501_6)">
<path d="M40.0824 56.0939C43.7886 50.2277 51.5486 48.4767 57.4148 52.1829V52.1829C63.2811 55.8891 65.0321 63.6491 61.3259 69.5153L40.9102 101.829C37.204 107.696 29.444 109.447 23.5778 105.74V105.74C17.7115 102.034 15.9605 94.2742 19.6667 88.408L40.0824 56.0939Z" fill="#23C8D2"/>
<path d="M37.1263 20.6218C40.8325 14.7555 48.5926 13.0045 54.4588 16.7107V16.7107C60.325 20.4169 62.0761 28.1769 58.3698 34.0432L37.9542 66.3572C34.248 72.2235 26.488 73.9745 20.6217 70.2683V70.2683C14.7555 66.5621 13.0045 58.8021 16.7107 52.9358L37.1263 20.6218Z" fill="#23C8D2"/>
</g>
<defs>
<filter id="filter0_d_501_6" x="0.766785" y="0.766846" width="88.5031" height="132.917" filterUnits="userSpaceOnUse" color-interpolation-filters="sRGB">
<feFlood flood-opacity="0" result="BackgroundImageFix"/>
<feColorMatrix in="SourceAlpha" type="matrix" values="0 0 0 0 0 0 0 0 0 0 0 0 0 0 0 0 0 0 127 0" result="hardAlpha"/>
<feOffset dx="6" dy="6"/>
<feGaussianBlur stdDeviation="10"/>
<feComposite in2="hardAlpha" operator="out"/>
<feColorMatrix type="matrix" values="0 0 0 0 0 0 0 0 0 0 0 0 0 0 0 0 0 0 0.13 0"/>
<feBlend mode="normal" in2="BackgroundImageFix" result="effect1_dropShadow_501_6"/>
<feBlend mode="normal" in="SourceGraphic" in2="effect1_dropShadow_501_6" result="shape"/>
</filter>
</defs>
</svg>
