<svg width="124" height="63" viewBox="0 0 124 63" fill="none" xmlns="http://www.w3.org/2000/svg">
<path d="M36.9543 31.6125C35.4609 31.6125 34.3409 31.2819 33.5943 30.6205C32.8583 29.9592 32.4476 29.0525 32.3623 27.9005H34.4103C34.4956 28.5725 34.7196 29.0952 35.0823 29.4685C35.4449 29.8312 36.0689 30.0125 36.9543 30.0125C37.5943 30.0125 38.1116 29.8525 38.5063 29.5325C38.9116 29.2019 39.1143 28.7752 39.1143 28.2525C39.1143 27.7192 38.9489 27.3299 38.6183 27.0845C38.2876 26.8392 37.6583 26.6419 36.7303 26.4925C35.3116 26.3005 34.2823 25.9592 33.6423 25.4685C33.0129 24.9672 32.6983 24.1939 32.6983 23.1485C32.6983 22.1992 33.0663 21.4152 33.8023 20.7965C34.5383 20.1779 35.4983 19.8685 36.6823 19.8685C37.9196 19.8685 38.8956 20.1512 39.6103 20.7165C40.3249 21.2712 40.7356 22.0925 40.8423 23.1805H38.8903C38.7836 22.5832 38.5543 22.1512 38.2023 21.8845C37.8503 21.6072 37.3436 21.4685 36.6823 21.4685C36.0529 21.4685 35.5676 21.6072 35.2263 21.8845C34.8849 22.1512 34.7143 22.5139 34.7143 22.9725C34.7143 23.4632 34.8689 23.8312 35.1783 24.0765C35.4983 24.3219 36.1329 24.5139 37.0823 24.6525C38.5009 24.8445 39.5356 25.1912 40.1863 25.6925C40.8369 26.1832 41.1623 26.9779 41.1623 28.0765C41.1623 29.0899 40.7729 29.9325 39.9943 30.6045C39.2156 31.2765 38.2023 31.6125 36.9543 31.6125ZM45.198 31.4525V21.6925H42.014V20.0125H50.526V21.6925H47.342V31.4525H45.198ZM56.2106 31.4525V20.0125H59.2346C60.4186 20.0125 61.3626 20.2739 62.0666 20.7965C62.7813 21.3192 63.1386 22.1299 63.1386 23.2285V23.2925C63.1386 24.4125 62.7866 25.2392 62.0826 25.7725C61.3786 26.2952 60.4346 26.5565 59.2506 26.5565H57.1066V31.4525H56.2106ZM57.1066 25.8365H59.3146C61.2666 25.8365 62.2426 24.9885 62.2426 23.2925V23.2285C62.2426 22.3432 61.9866 21.7085 61.4746 21.3245C60.9626 20.9405 60.232 20.7485 59.2826 20.7485H57.1066V25.8365ZM65.3044 31.4525V20.0125H66.2004V30.7165H71.7524V31.4525H65.3044ZM72.8448 31.4525L76.9568 20.0125H78.1408L82.2528 31.4525H81.3568L80.0928 27.9485H74.9408L73.6928 31.4525H72.8448ZM77.5168 20.7485L75.1968 27.2285H79.8368L77.5168 20.7485ZM85.9485 31.4525V26.3645L82.0285 20.0125H83.0205L86.4125 25.6125L89.6445 20.0125H90.5405L86.8445 26.3805V31.4525H85.9485ZM92.3825 31.4525V20.0125H98.9585V20.7485H93.2785V25.2125H97.8865V25.9485H93.2785V30.7165H99.2465V31.4525H92.3825ZM101.445 31.4525V20.0125H104.581C105.765 20.0125 106.709 20.2632 107.413 20.7645C108.117 21.2552 108.469 22.0285 108.469 23.0845V23.1485C108.469 24.8872 107.482 25.8952 105.509 26.1725L109.141 31.4525H108.149L104.565 26.2365H102.341V31.4525H101.445ZM102.341 25.5165H104.629C106.592 25.5165 107.573 24.7272 107.573 23.1485V23.0845C107.573 22.2419 107.317 21.6445 106.805 21.2925C106.304 20.9299 105.578 20.7485 104.629 20.7485H102.341V25.5165Z" fill="black"/>
<g filter="url(#filter0_d_1_14)">
<path d="M20.3405 24.2478C21.2449 22.8163 23.1385 22.389 24.57 23.2934C26.0014 24.1978 26.4287 26.0914 25.5243 27.5228L20.5425 35.4081C19.6381 36.8396 17.7445 37.2669 16.3131 36.3625C14.8816 35.4581 14.4543 33.5645 15.3587 32.133L20.3405 24.2478Z" fill="#23C8D2"/>
<path d="M19.6191 15.5919C20.5235 14.1604 22.4171 13.7332 23.8485 14.6375C25.28 15.5419 25.7073 17.4355 24.8029 18.867L19.8211 26.7522C18.9167 28.1837 17.0231 28.611 15.5916 27.7066C14.1602 26.8022 13.7329 24.9086 14.6373 23.4772L19.6191 15.5919Z" fill="#23C8D2"/>
</g>
<defs>
<filter id="filter0_d_1_14" x="0.162903" y="0.163177" width="51.8358" height="62.6736" filterUnits="userSpaceOnUse" color-interpolation-filters="sRGB">
<feFlood flood-opacity="0" result="BackgroundImageFix"/>
<feColorMatrix in="SourceAlpha" type="matrix" values="0 0 0 0 0 0 0 0 0 0 0 0 0 0 0 0 0 0 127 0" result="hardAlpha"/>
<feOffset dx="6" dy="6"/>
<feGaussianBlur stdDeviation="10"/>
<feComposite in2="hardAlpha" operator="out"/>
<feColorMatrix type="matrix" values="0 0 0 0 0 0 0 0 0 0 0 0 0 0 0 0 0 0 0.13 0"/>
<feBlend mode="normal" in2="BackgroundImageFix" result="effect1_dropShadow_1_14"/>
<feBlend mode="normal" in="SourceGraphic" in2="effect1_dropShadow_1_14" result="shape"/>
</filter>
</defs>
</svg>
